<svg version="1.1" xmlns="http://www.w3.org/2000/svg" viewBox="0 0 565.3978068553279 318" width="565.3978068553279" height="318">
  <!-- svg-source:excalidraw -->
  
  <defs>
    <style class="style-fonts">
      @font-face {
        font-family: "Virgil";
        src: url("https://excalidraw.com/Virgil.woff2");
      }
      @font-face {
        font-family: "Cascadia";
        src: url("https://excalidraw.com/Cascadia.woff2");
      }
      @font-face {
        font-family: "Assistant";
        src: url("https://excalidraw.com/Assistant-Regular.woff2");
      }
    </style>
    
  </defs>
  <g stroke-linecap="round" transform="translate(10 10) rotate(0 58 149)"><path d="M29 0 C51.86 -2.71, 74.19 -3.2, 87 0 C109.9 -2.52, 114.85 12.19, 116 29 C115.69 96.01, 112.31 160.01, 116 269 C112.9 285.81, 106.36 298.65, 87 298 C71.53 299.28, 60.15 296.75, 29 298 C13.04 295.19, 0.29 285.33, 0 269 C-4.36 207.35, -4.87 144.41, 0 29 C-1.91 9.21, 12.96 2.36, 29 0" stroke="none" stroke-width="0" fill="#a5d8ff"></path><path d="M29 0 C50.26 1.45, 71.06 0.26, 87 0 M29 0 C51.12 0.69, 75.25 0.87, 87 0 M87 0 C107.15 -1.23, 115.49 11.55, 116 29 M87 0 C104.37 1.44, 115.04 8.5, 116 29 M116 29 C117.27 87.15, 117.24 144.17, 116 269 M116 29 C115.67 118.26, 115.44 208.95, 116 269 M116 269 C117.07 286.96, 105.37 299.29, 87 298 M116 269 C117.62 288.19, 108.46 296.9, 87 298 M87 298 C66.25 299.58, 45.37 299.77, 29 298 M87 298 C75.81 297.92, 63.68 297.66, 29 298 M29 298 C10.45 297.89, 0.45 288.42, 0 269 M29 298 C7.98 299.78, 0.65 289.95, 0 269 M0 269 C-1.07 202.76, -0.37 135.61, 0 29 M0 269 C-1.32 208.92, -0.65 147.45, 0 29 M0 29 C-0.92 8.47, 10.6 0.24, 29 0 M0 29 C-1.91 8.09, 10.61 1.61, 29 0" stroke="#1e1e1e" stroke-width="2" fill="none"></path></g><g transform="translate(23.354167938232422 124) rotate(0 44.64583206176758 35)"><text x="44.64583206176758" y="0" font-family="Virgil, Segoe UI Emoji" font-size="28px" fill="#1e1e1e" text-anchor="middle" style="white-space: pre;" direction="ltr" dominant-baseline="text-before-edge">Event</text><text x="44.64583206176758" y="35" font-family="Virgil, Segoe UI Emoji" font-size="28px" fill="#1e1e1e" text-anchor="middle" style="white-space: pre;" direction="ltr" dominant-baseline="text-before-edge">Broker</text></g><g stroke-linecap="round" transform="translate(222.64780685532787 37.430715907892704) rotate(0 72.5 35.5)"><path d="M17.75 0 C49.31 -2.1, 86.62 0.28, 127.25 0 C139.07 -0.86, 143.37 6.68, 145 17.75 C145.45 28.86, 146.05 42.82, 145 53.25 C148.58 65.96, 139.98 74.05, 127.25 71 C90.87 75.33, 64.37 73.14, 17.75 71 C7.04 69.3, 1.27 62.6, 0 53.25 C0.64 37.36, -0.28 29.8, 0 17.75 C-0.13 2.48, 8.2 2.09, 17.75 0" stroke="none" stroke-width="0" fill="#ffec99"></path><path d="M17.75 0 C55.36 0.79, 89.95 1.93, 127.25 0 M17.75 0 C54.47 -1.68, 90.33 -1.32, 127.25 0 M127.25 0 C140.04 0.23, 143.67 6.6, 145 17.75 M127.25 0 C136.83 -2.06, 143.53 5.29, 145 17.75 M145 17.75 C144.59 32.38, 144.45 43.47, 145 53.25 M145 17.75 C145.51 28.16, 145.26 39.18, 145 53.25 M145 53.25 C143.18 66.14, 138.39 70.37, 127.25 71 M145 53.25 C142.84 66.34, 139.99 70.27, 127.25 71 M127.25 71 C87.89 71.7, 44.73 68.62, 17.75 71 M127.25 71 C92.6 71.13, 57.71 71.76, 17.75 71 M17.75 71 C7.16 69.26, -0.17 63.67, 0 53.25 M17.75 71 C3.79 71.36, 0.59 66.8, 0 53.25 M0 53.25 C1.42 47.86, -0.47 37.01, 0 17.75 M0 53.25 C0.78 45.09, 0.24 37.2, 0 17.75 M0 17.75 C1.5 5.38, 7.04 1, 17.75 0 M0 17.75 C0.44 5.61, 7.53 1.15, 17.75 0" stroke="#1e1e1e" stroke-width="2" fill="none"></path></g><g transform="translate(258.54363891709545 47.930715907892704) rotate(0 36.60416793823242 25)"><text x="36.60416793823242" y="0" font-family="Virgil, Segoe UI Emoji" font-size="20px" fill="#1e1e1e" text-anchor="middle" style="white-space: pre;" direction="ltr" dominant-baseline="text-before-edge">State</text><text x="36.60416793823242" y="25" font-family="Virgil, Segoe UI Emoji" font-size="20px" fill="#1e1e1e" text-anchor="middle" style="white-space: pre;" direction="ltr" dominant-baseline="text-before-edge">Machine</text></g><g stroke-linecap="round" transform="translate(410.1478068553279 37.930715907892704) rotate(0 72.5 35.5)"><path d="M17.75 0 C44.66 3.26, 76.5 1, 127.25 0 C138.94 0.22, 141.48 5.97, 145 17.75 C145.54 27.78, 141.52 38.36, 145 53.25 C146.86 67.04, 140.42 73.93, 127.25 71 C82.06 74.43, 42.14 72.17, 17.75 71 C8.52 70.02, -0.62 67.98, 0 53.25 C-2.91 43.13, 1.07 34.57, 0 17.75 C0.24 4.31, 8.49 0.6, 17.75 0" stroke="none" stroke-width="0" fill="#ffec99"></path><path d="M17.75 0 C53.01 -0.19, 86.93 0.46, 127.25 0 M17.75 0 C57.38 0.02, 98.63 0.74, 127.25 0 M127.25 0 C138.8 -1.68, 143.92 6.71, 145 17.75 M127.25 0 C137.2 2.28, 146.96 5.67, 145 17.75 M145 17.75 C144.17 29.49, 145.36 44.95, 145 53.25 M145 17.75 C144.88 26.14, 145.96 34.1, 145 53.25 M145 53.25 C143.32 66.28, 139.59 69.44, 127.25 71 M145 53.25 C146.24 64.13, 138.09 70.79, 127.25 71 M127.25 71 C84.95 69.89, 45.44 69.85, 17.75 71 M127.25 71 C101.12 69.4, 76.46 70.02, 17.75 71 M17.75 71 C7.39 71.04, 1.22 63.43, 0 53.25 M17.75 71 C4.58 69.77, -0.96 65.52, 0 53.25 M0 53.25 C-0.9 47.71, -1.64 40.06, 0 17.75 M0 53.25 C0.02 42.57, 0.46 33.82, 0 17.75 M0 17.75 C1.11 6.86, 7.87 0.13, 17.75 0 M0 17.75 C-0.52 3.92, 4.66 -0.33, 17.75 0" stroke="#1e1e1e" stroke-width="2" fill="none"></path></g><g transform="translate(451.25197288621166 48.430715907892704) rotate(0 31.39583396911621 25)"><text x="31.39583396911621" y="0" font-family="Virgil, Segoe UI Emoji" font-size="20px" fill="#1e1e1e" text-anchor="middle" style="white-space: pre;" direction="ltr" dominant-baseline="text-before-edge">Event</text><text x="31.39583396911621" y="25" font-family="Virgil, Segoe UI Emoji" font-size="20px" fill="#1e1e1e" text-anchor="middle" style="white-space: pre;" direction="ltr" dominant-baseline="text-before-edge">Filters</text></g><g stroke-linecap="round" transform="translate(223.89780685532787 206.6807159078927) rotate(0 72.5 35.5)"><path d="M17.75 0 C60.72 -0.17, 101.3 -3.59, 127.25 0 C139.61 0.79, 144.1 3.85, 145 17.75 C146.37 27.9, 146.6 35.21, 145 53.25 C144.61 65.19, 139.76 72.92, 127.25 71 C87.58 70.22, 47.42 71.92, 17.75 71 C9.1 68.69, -1.17 65.51, 0 53.25 C1.08 44.39, 2.71 40.04, 0 17.75 C-0.1 3.62, 7.36 0.73, 17.75 0" stroke="none" stroke-width="0" fill="#ffec99"></path><path d="M17.75 0 C50.76 0.86, 87.93 1.75, 127.25 0 M17.75 0 C41.26 0.97, 64.45 -0.71, 127.25 0 M127.25 0 C137.77 0.1, 144.47 4.23, 145 17.75 M127.25 0 C140.75 -0.64, 145.8 8.08, 145 17.75 M145 17.75 C146.21 28.57, 144.42 41.93, 145 53.25 M145 17.75 C144.25 29.1, 145.24 42.05, 145 53.25 M145 53.25 C144.66 65.7, 138 72, 127.25 71 M145 53.25 C145.44 67.05, 138.53 71.9, 127.25 71 M127.25 71 C101.71 70.61, 80.82 68.64, 17.75 71 M127.25 71 C98.73 71.02, 71.58 72.67, 17.75 71 M17.75 71 C4.03 71.4, 0.74 64.05, 0 53.25 M17.75 71 C3.84 70.2, 1.14 66.82, 0 53.25 M0 53.25 C-0.52 41.07, -0.32 28.65, 0 17.75 M0 53.25 C-0.44 39.88, 0.31 28.28, 0 17.75 M0 17.75 C1.87 4.11, 6.03 -1.88, 17.75 0 M0 17.75 C1.54 5.3, 4.42 -1.49, 17.75 0" stroke="#1e1e1e" stroke-width="2" fill="none"></path></g><g transform="translate(259.79363891709545 217.1807159078927) rotate(0 36.60416793823242 25)"><text x="36.60416793823242" y="0" font-family="Virgil, Segoe UI Emoji" font-size="20px" fill="#1e1e1e" text-anchor="middle" style="white-space: pre;" direction="ltr" dominant-baseline="text-before-edge">State</text><text x="36.60416793823242" y="25" font-family="Virgil, Segoe UI Emoji" font-size="20px" fill="#1e1e1e" text-anchor="middle" style="white-space: pre;" direction="ltr" dominant-baseline="text-before-edge">Machine</text></g><g stroke-linecap="round" transform="translate(410.3978068553279 207.1807159078927) rotate(0 72.5 35.5)"><path d="M17.75 0 C54.53 0.73, 94.51 -1.66, 127.25 0 M17.75 0 C60.01 0.88, 103.31 -0.01, 127.25 0 M127.25 0 C140.53 -0.56, 145.7 7.8, 145 17.75 M127.25 0 C140.24 1.71, 143.3 7.01, 145 17.75 M145 17.75 C145.46 23.8, 145.57 32.41, 145 53.25 M145 17.75 C145.02 27.39, 144.65 36.91, 145 53.25 M145 53.25 C145.38 66.79, 138.6 71.79, 127.25 71 M145 53.25 C143.16 66.09, 137.18 69.34, 127.25 71 M127.25 71 C90.71 69.41, 57.27 69.17, 17.75 71 M127.25 71 C101.2 72.23, 77.41 71.51, 17.75 71 M17.75 71 C4.12 70.31, 0.99 66.59, 0 53.25 M17.75 71 C7.2 72.56, 0.76 64.76, 0 53.25 M0 53.25 C1.14 43.27, -0.29 29.97, 0 17.75 M0 53.25 C0.73 44.24, -0.15 36.1, 0 17.75 M0 17.75 C1.34 5.38, 4.62 -1.29, 17.75 0 M0 17.75 C1.99 4.95, 6.99 0.4, 17.75 0" stroke="#1e1e1e" stroke-width="2" fill="none"></path></g><g transform="translate(447.79363891709545 217.6807159078927) rotate(0 35.10416793823242 25)"><text x="35.10416793823242" y="0" font-family="Virgil, Segoe UI Emoji" font-size="20px" fill="#1e1e1e" text-anchor="middle" style="white-space: pre;" direction="ltr" dominant-baseline="text-before-edge">Worker</text><text x="35.10416793823242" y="25" font-family="Virgil, Segoe UI Emoji" font-size="20px" fill="#1e1e1e" text-anchor="middle" style="white-space: pre;" direction="ltr" dominant-baseline="text-before-edge">Thread</text></g><g mask="url(#mask-ZmxV4ekv2ivmQ-X-n_IEZ)" stroke-linecap="round"><g transform="translate(135.5237561384538 73.61132906936973) rotate(0 40.78685967974832 0.1448627889882914)"><path d="M-0.07 -0.85 C13.34 -0.7, 67.33 0.9, 80.8 1.14 M-1.57 1.32 C12.2 1.12, 68.97 -0.66, 83.1 -0.54" stroke="#1e1e1e" stroke-width="2" fill="none"></path></g><g transform="translate(135.5237561384538 73.61132906936973) rotate(0 40.78685967974832 0.1448627889882914)"><path d="M59.73 8.34 C65.95 4.16, 76.43 1.2, 83.1 -0.54 M59.73 8.34 C67.39 4.65, 74.17 2.73, 83.1 -0.54" stroke="#1e1e1e" stroke-width="2" fill="none"></path></g><g transform="translate(135.5237561384538 73.61132906936973) rotate(0 40.78685967974832 0.1448627889882914)"><path d="M59.49 -8.76 C65.82 -7.34, 76.38 -4.71, 83.1 -0.54 M59.49 -8.76 C67.19 -6.88, 74.05 -3.24, 83.1 -0.54" stroke="#1e1e1e" stroke-width="2" fill="none"></path></g></g><mask id="mask-ZmxV4ekv2ivmQ-X-n_IEZ"><rect x="0" y="0" fill="#fff" width="317.0974754979504" height="173.9010546473463"></rect><rect x="159.46686581820222" y="61.256191858357965" fill="#000" width="33.6875" height="25" opacity="1"></rect></mask><g transform="translate(159.46686581820222 61.256191858357965) rotate(0 16.822828290490406 12.592138880628227)"><text x="16.84375" y="0" font-family="Virgil, Segoe UI Emoji" font-size="20px" fill="#1e1e1e" text-anchor="middle" style="white-space: pre;" direction="ltr" dominant-baseline="text-before-edge">Sub</text></g><g mask="url(#mask-fjL0fEIqMt1X-I12EnwFl)" stroke-linecap="round"><g transform="translate(219.78876153025317 243.87039986117531) rotate(0 -44.415897376442786 0.15236355838163718)"><path d="M0.23 -1.16 C-14.79 -1.23, -74.91 -0.64, -89.8 -0.39 M-1.1 0.85 C-15.79 0.92, -72.77 0.65, -87.6 0.78" stroke="#1e1e1e" stroke-width="2" fill="none"></path></g><g transform="translate(219.78876153025317 243.87039986117531) rotate(0 -44.415897376442786 0.15236355838163718)"><path d="M-64.12 -7.8 C-73.75 -6.56, -80.69 -2.62, -87.6 0.78 M-64.12 -7.8 C-72.07 -5.2, -77.68 -3.66, -87.6 0.78" stroke="#1e1e1e" stroke-width="2" fill="none"></path></g><g transform="translate(219.78876153025317 243.87039986117531) rotate(0 -44.415897376442786 0.15236355838163718)"><path d="M-64.1 9.3 C-73.74 4.93, -80.68 3.25, -87.6 0.78 M-64.1 9.3 C-72.08 6.74, -77.7 3.13, -87.6 0.78" stroke="#1e1e1e" stroke-width="2" fill="none"></path></g></g><mask id="mask-fjL0fEIqMt1X-I12EnwFl"><rect x="0" y="0" fill="#fff" width="408.62055628313874" height="344.1751269779386"></rect><rect x="157.9978641538105" y="231.522763419557" fill="#000" width="34.75" height="25" opacity="1"></rect></mask><g transform="translate(157.9978641538105 231.522763419557) rotate(0 17.006436526030143 12.195079982512425)"><text x="17.375" y="0" font-family="Virgil, Segoe UI Emoji" font-size="20px" fill="#1e1e1e" text-anchor="middle" style="white-space: pre;" direction="ltr" dominant-baseline="text-before-edge">Pub</text></g><g stroke-linecap="round"><g transform="translate(409.3978068553279 242.2250790692541) rotate(0 -19.002338426262213 -0.13115857497029992)"><path d="M-0.28 -0.01 C-6.57 -0.13, -31.45 -0.65, -37.66 -0.7 M0.58 -0.49 C-5.76 -0.56, -31.54 -0.36, -37.92 -0.22" stroke="#1e1e1e" stroke-width="2" fill="none"></path></g><g transform="translate(409.3978068553279 242.2250790692541) rotate(0 -19.002338426262213 -0.13115857497029992)"><path d="M-20.15 -6.96 C-25.79 -4.28, -32.15 -1.95, -37.92 -0.22 M-20.15 -6.96 C-25.37 -5.39, -30.42 -2.72, -37.92 -0.22" stroke="#1e1e1e" stroke-width="2" fill="none"></path></g><g transform="translate(409.3978068553279 242.2250790692541) rotate(0 -19.002338426262213 -0.13115857497029992)"><path d="M-19.98 6.04 C-25.68 4.6, -32.09 2.81, -37.92 -0.22 M-19.98 6.04 C-25.23 3.69, -30.33 2.45, -37.92 -0.22" stroke="#1e1e1e" stroke-width="2" fill="none"></path></g></g><mask></mask><g stroke-linecap="round"><g transform="translate(368.0530882027033 74.4307159078927) rotate(0 19.29824482895424 -0.05444247343717734)"><path d="M0.43 0.18 C6.91 0.13, 32.09 0.17, 38.45 0.1 M-0.02 -0.2 C6.42 -0.46, 31.56 -0.84, 37.94 -0.75" stroke="#1e1e1e" stroke-width="2" fill="none"></path></g><g transform="translate(368.0530882027033 74.4307159078927) rotate(0 19.29824482895424 -0.05444247343717734)"><path d="M19.83 5.9 C24.05 4.12, 28.05 2.92, 37.94 -0.75 M19.83 5.9 C25.29 4.03, 29.99 1.89, 37.94 -0.75" stroke="#1e1e1e" stroke-width="2" fill="none"></path></g><g transform="translate(368.0530882027033 74.4307159078927) rotate(0 19.29824482895424 -0.05444247343717734)"><path d="M19.78 -7.3 C24.07 -6.21, 28.07 -4.54, 37.94 -0.75 M19.78 -7.3 C25.28 -5.46, 29.99 -3.89, 37.94 -0.75" stroke="#1e1e1e" stroke-width="2" fill="none"></path></g></g><mask></mask><g mask="url(#mask-o5szasraqjZzqc62gfl55)" stroke-linecap="round"><g transform="translate(480.35821221443257 108.47671814085311) rotate(0 1.6447973204476511 49.4769988835198)"><path d="M-0.31 -1.09 C0.23 15.24, 2.27 81.8, 2.92 98.36 M1.73 0.96 C2.11 17.41, 1.57 83.21, 1.77 99.58" stroke="#1e1e1e" stroke-width="2" fill="none"></path></g><g transform="translate(480.35821221443257 108.47671814085311) rotate(0 1.6447973204476511 49.4769988835198)"><path d="M-6.8 76.1 C-6.22 81.87, -3.07 89.35, 1.77 99.58 M-6.8 76.1 C-5.86 82.51, -2.98 87.63, 1.77 99.58" stroke="#1e1e1e" stroke-width="2" fill="none"></path></g><g transform="translate(480.35821221443257 108.47671814085311) rotate(0 1.6447973204476511 49.4769988835198)"><path d="M10.3 76.08 C6.24 81.82, 4.75 89.3, 1.77 99.58 M10.3 76.08 C7.11 82.38, 5.85 87.5, 1.77 99.58" stroke="#1e1e1e" stroke-width="2" fill="none"></path></g></g><mask id="mask-o5szasraqjZzqc62gfl55"><rect x="0" y="0" fill="#fff" width="583.6478068553279" height="307.4307159078927"></rect><rect x="448.82592747311264" y="145.45371702437285" fill="#000" width="66.35416412353516" height="25" opacity="1"></rect></mask><g transform="translate(448.82592747311264 145.45371702437285) rotate(0 32.835418497771 12.270174635951491)"><text x="33.17708206176758" y="0" font-family="Virgil, Segoe UI Emoji" font-size="20px" fill="#1e1e1e" text-anchor="middle" style="white-space: pre;" direction="ltr" dominant-baseline="text-before-edge">Events</text></g></svg>